<svg xmlns="http://www.w3.org/2000/svg" xmlns:xlink="http://www.w3.org/1999/xlink" width="375" height="812" viewBox="0 0 375 812">
  <defs>
    <filter id="Rectangle_2312" x="-9" y="-12" width="393" height="92" filterUnits="userSpaceOnUse">
      <feOffset dy="-3" input="SourceAlpha"/>
      <feGaussianBlur stdDeviation="3" result="blur"/>
      <feFlood flood-opacity="0.161"/>
      <feComposite operator="in" in2="blur"/>
      <feComposite in="SourceGraphic"/>
    </filter>
    <filter id="Mask" x="118" y="79" width="141" height="52" filterUnits="userSpaceOnUse">
      <feOffset dy="3" input="SourceAlpha"/>
      <feGaussianBlur stdDeviation="4" result="blur-2"/>
      <feFlood flood-opacity="0.078"/>
      <feComposite operator="in" in2="blur-2"/>
      <feComposite in="SourceGraphic"/>
    </filter>
    <linearGradient id="linear-gradient" x1="0.843" y1="0.066" x2="0.325" y2="1.045" gradientUnits="objectBoundingBox">
      <stop offset="0" stop-color="#474a6d"/>
      <stop offset="1" stop-color="#050506"/>
    </linearGradient>
    <clipPath id="clip-checkout-payment">
      <rect width="375" height="812"/>
    </clipPath>
  </defs>
  <g id="checkout-payment" clip-path="url(#clip-checkout-payment)">
    <rect width="375" height="812" fill="#fafafa"/>
    <g id="Group_2066" data-name="Group 2066">
      <g id="Group_1920" data-name="Group 1920">
        <g transform="matrix(1, 0, 0, 1, 0, 0)" filter="url(#Rectangle_2312)">
          <rect id="Rectangle_2312-2" data-name="Rectangle 2312" width="375" height="74" fill="#2196f3"/>
        </g>
      </g>
      <text id="Checkout" transform="translate(186 61)" fill="#fff" font-size="17" font-family="Roboto-Medium, Roboto" font-weight="500"><tspan x="-36.104" y="0">Checkout</tspan></text>
    </g>
    <g id="Status_Bar" data-name="Status Bar" transform="translate(14 10)">
      <g id="Battery" transform="translate(324.333 4.333)">
        <g id="Border" fill="none" stroke="#fff" stroke-miterlimit="10" stroke-width="1">
          <rect width="22" height="11.333" rx="2.667" stroke="none"/>
          <rect x="0.5" y="0.5" width="21" height="10.333" rx="2.167" fill="none"/>
        </g>
        <path id="Cap" d="M0,0V4A2.17,2.17,0,0,0,1.328,2,2.17,2.17,0,0,0,0,0" transform="translate(23 3.667)" fill="#fff"/>
        <rect id="Capacity" width="18" height="7.333" rx="1.333" transform="translate(2 2)" fill="#fff"/>
      </g>
      <path id="Wifi" d="M7.667,11a.314.314,0,0,1-.222-.093L5.439,8.885a.31.31,0,0,1-.094-.231.316.316,0,0,1,.1-.227,3.437,3.437,0,0,1,4.437,0,.315.315,0,0,1,.009.458L7.889,10.907A.314.314,0,0,1,7.667,11ZM11.19,7.451a.313.313,0,0,1-.215-.086,4.928,4.928,0,0,0-6.612,0,.313.313,0,0,1-.215.086.308.308,0,0,1-.22-.091L2.768,6.189a.322.322,0,0,1,0-.46,7.192,7.192,0,0,1,9.791,0,.323.323,0,0,1,.1.23.319.319,0,0,1-.095.23L11.409,7.36A.309.309,0,0,1,11.19,7.451Zm2.669-2.693a.3.3,0,0,1-.215-.088,8.68,8.68,0,0,0-11.955,0,.307.307,0,0,1-.435,0L.094,3.5a.323.323,0,0,1,0-.457,10.948,10.948,0,0,1,15.141,0,.323.323,0,0,1,0,.457l-1.161,1.17A.306.306,0,0,1,13.859,4.758Z" transform="translate(304 4.331)" fill="#fff"/>
      <path id="Cellular_Connection" data-name="Cellular Connection" d="M16,10.667H15a1,1,0,0,1-1-1V1a1,1,0,0,1,1-1h1a1,1,0,0,1,1,1V9.667A1,1,0,0,1,16,10.667Zm-4.667,0h-1a1,1,0,0,1-1-1V3.334a1,1,0,0,1,1-1h1a1,1,0,0,1,1,1V9.667A1,1,0,0,1,11.334,10.667Zm-4.667,0h-1a1,1,0,0,1-1-1v-4a1,1,0,0,1,1-1h1a1,1,0,0,1,1,1v4A1,1,0,0,1,6.666,10.667ZM2,10.667H1a1,1,0,0,1-1-1v-2a1,1,0,0,1,1-1H2a1,1,0,0,1,1,1v2A1,1,0,0,1,2,10.667Z" transform="translate(282 4.667)" fill="#fff"/>
      <g id="Time_Style" data-name="Time Style">
        <rect id="Pill_Shape" data-name="Pill Shape" width="54" height="21" rx="10.5" fill="#34c759"/>
        <text id="Time" transform="translate(0 2)" fill="#fff" font-size="15" font-family="SFProText-Semibold, SF Pro Text" font-weight="600" letter-spacing="-0.02em"><tspan x="11.337" y="14">9:41</tspan></text>
      </g>
    </g>
    <g id="Controls_-_Segmented_Control_-_Light_-_3_Buttons" data-name="Controls - Segmented Control - Light - 3 Buttons" transform="translate(12 86)">
      <rect id="Background" width="351" height="32" rx="6" fill="rgba(118,118,128,0.12)"/>
      <g id="Separator" transform="translate(117 8)">
        <rect id="Separator-2" data-name="Separator" width="1" height="16" fill="#8e8e93" opacity="0.301"/>
      </g>
      <g id="Separator-3" data-name="Separator" transform="translate(236 9)">
        <rect id="Separator-4" data-name="Separator" width="1" height="16" fill="#8e8e93" opacity="0.301"/>
      </g>
      <g transform="matrix(1, 0, 0, 1, -12, -86)" filter="url(#Mask)">
        <g id="Mask-2" data-name="Mask" transform="translate(130 88)" fill="#2196f3" stroke="rgba(0,0,0,0.04)" stroke-width="0.5">
          <rect width="117" height="28" rx="7" stroke="none"/>
          <rect x="0.25" y="0.25" width="116.5" height="27.5" rx="6.75" fill="none"/>
        </g>
      </g>
      <g id="Option_3" data-name="Option 3" transform="translate(233 2)">
        <rect id="Mask-3" data-name="Mask" width="115" height="28" fill="#fff" opacity="0"/>
        <text id="Summary" transform="translate(58 19)" fill="#2e2e2e" font-size="13" font-family="Roboto-Medium, Roboto" font-weight="500"><tspan x="-27.869" y="0">Summary</tspan></text>
      </g>
      <g id="Option_2" data-name="Option 2" transform="translate(118 2)">
        <rect id="Mask-4" data-name="Mask" width="115" height="28" fill="none"/>
        <text id="Payment" transform="translate(61 19)" fill="#fff" font-size="13" font-family="Roboto-Medium, Roboto" font-weight="500"><tspan x="-25.673" y="0">Payment</tspan></text>
      </g>
      <g id="Option_1" data-name="Option 1" transform="translate(36 8)">
        <text id="Delivery" transform="translate(25 13)" fill="#2e2e2e" font-size="14" font-family="Roboto-Medium, Roboto" font-weight="500"><tspan x="-25.009" y="0">Delivery</tspan></text>
      </g>
    </g>
    <g id="Group_1919" data-name="Group 1919" transform="translate(0 -9)">
      <rect id="Rectangle_2306" data-name="Rectangle 2306" width="296" height="40" rx="6" transform="translate(40 747)" fill="#2196f3"/>
      <text id="Proceed_to_Summary" data-name="Proceed to Summary" transform="translate(188 773)" fill="#fff" font-size="17" font-family="Roboto-Regular, Roboto"><tspan x="-79.227" y="0">Proceed to Summary</tspan></text>
    </g>
    <g id="Group_3061" data-name="Group 3061" transform="translate(329.344 -56.657)">
      <line id="Line_84" data-name="Line 84" x2="12.314" y2="12.314" transform="translate(17.5 105.5)" fill="none" stroke="#fff" stroke-linecap="round" stroke-width="2.5"/>
      <line id="Line_85" data-name="Line 85" x1="12.314" y2="12.314" transform="translate(17.5 105.5)" fill="none" stroke="#fff" stroke-linecap="round" stroke-width="2.5"/>
    </g>
    <path id="Rectangle" d="M10,0h4a0,0,0,0,1,0,0V160a0,0,0,0,1,0,0H10A10,10,0,0,1,0,150V10A10,10,0,0,1,10,0Z" transform="translate(361 175)" fill="#c00000" opacity="0.8"/>
    <path id="Rectangle-2" data-name="Rectangle" d="M0,0H4A10,10,0,0,1,14,10V150A10,10,0,0,1,4,160H0a0,0,0,0,1,0,0V0A0,0,0,0,1,0,0Z" transform="translate(0 175)" fill="#019" opacity="0.8"/>
    <g id="Atm-card" transform="translate(0 46)">
      <rect id="Rectangle-3" data-name="Rectangle" width="315" height="190" rx="10" transform="translate(30 114)" fill="url(#linear-gradient)"/>
      <g id="Group_29" data-name="Group 29" transform="translate(50 144)">
        <path id="Combined_Shape" data-name="Combined Shape" d="M28.724,20.56H21.486V17.767h9.235v.8A2,2,0,0,1,28.724,20.56Zm-8.6,0H11.483V15.187h8.643v5.373Zm-10,0H2a2,2,0,0,1-2-2V2A2,2,0,0,1,2,0h8.125V3.5H.009V4.872H10.122V7.811H.009V9.178H10.122v2.939H.009v1.367H10.122v2.94H.009V17.79H10.122v2.769Zm20.6-4.123H21.486V13.46h9.235v2.976Zm-10.595-2.58H11.483V7.072h8.643v6.784ZM30.721,12.13H21.486V9.154h9.235v2.975Zm0-4.306H21.486V4.848h9.235V7.824ZM20.126,5.743H11.483V0h8.643V5.742ZM30.721,3.518H21.486V0h7.239a2,2,0,0,1,2,2V3.517Z" transform="translate(0.496 0.496)" fill="gold"/>
      </g>
      <text id="_1234_5783_1231_9123" data-name="1234 5783 1231 9123" transform="translate(50 212)" fill="#fff" font-size="20" font-family="Roboto-Regular, Roboto" letter-spacing="0.021em"><tspan x="0" y="0" xml:space="preserve">2568  5474  0002  1234</tspan></text>
      <text id="Mike_Peter" data-name="Mike Peter" transform="translate(50 274)" fill="#fff" font-size="20" font-family="Roboto-Regular, Roboto" letter-spacing="-0.02em"><tspan x="0" y="0">Oluwatunde Nwafor</tspan></text>
      <text id="Card_Holder" data-name="Card Holder" transform="translate(50 244)" fill="#fff" font-size="12" font-family="Roboto-Regular, Roboto" opacity="0.583"><tspan x="0" y="0">Card Holder</tspan></text>
      <text id="_01_2025" data-name="01 / 2025" transform="translate(277 156)" fill="#f7f7f7" font-size="12" font-family="Roboto-Regular, Roboto" opacity="0.635"><tspan x="0" y="0">09 / 2021</tspan></text>
      <g id="Icon_MasterCard" transform="translate(279.416 251.628)">
        <path id="Path_68" data-name="Path 68" d="M54.552,38.489a4.732,4.732,0,0,1-4.91,4.537H7.91A4.732,4.732,0,0,1,3,38.489V13.537A4.732,4.732,0,0,1,7.91,9H49.642a4.732,4.732,0,0,1,4.91,4.537Z" transform="translate(-3 -9)" fill="#3f51b5" opacity="0"/>
        <path id="Path_69" data-name="Path 69" d="M44.4,24.912c0,6.027-5.462,10.912-12.2,10.912S20,30.939,20,24.912,25.462,14,32.2,14,44.4,18.885,44.4,24.912Z" transform="translate(1.046 -7.899)" fill="#ffc107"/>
        <path id="Path_70" data-name="Path 70" d="M25.322,31.459a10.675,10.675,0,0,1-1.435-2.182h6.5a10.05,10.05,0,0,0,.777-2.182H23.111a9.7,9.7,0,0,1-.248-2.182H31.4a9.981,9.981,0,0,0-.243-2.182H23.106a10.069,10.069,0,0,1,.782-2.182h6.5a10.675,10.675,0,0,0-1.435-2.182H25.322a11.542,11.542,0,0,1,1.807-1.739A13.033,13.033,0,0,0,19.2,14C12.462,14,7,18.885,7,24.912s5.462,10.912,12.2,10.912a12.685,12.685,0,0,0,9.743-4.365Z" transform="translate(-2.119 -7.899)" fill="#ff3d00"/>
      </g>
    </g>
    <g id="product_slider_dots" data-name="product slider dots" transform="translate(178 364)">
      <circle id="Oval" cx="4" cy="4" r="4" transform="translate(0 6) rotate(-90)" fill="#2196f3"/>
      <circle id="Oval-2" data-name="Oval" cx="3" cy="3" r="3" transform="translate(15 5) rotate(-90)" fill="#2e2e2e" opacity="0.3"/>
      <circle id="Oval-3" data-name="Oval" cx="3" cy="3" r="3" transform="translate(-13 5) rotate(-90)" fill="#2e2e2e" opacity="0.3"/>
    </g>
    <line id="Line_29" data-name="Line 29" x2="351" transform="translate(12.5 672.5)" fill="none" stroke="#2e2e2e" stroke-width="1" opacity="0.2"/>
    <text id="total" transform="translate(14 699)" fill="#2e2e2e" font-size="16" font-family="Roboto-Regular, Roboto"><tspan x="0" y="0">Total</tspan></text>
    <text id="subtotal" transform="translate(14 625)" fill="#2e2e2e" font-size="16" font-family="Roboto-Regular, Roboto"><tspan x="0" y="0">Subtotal</tspan></text>
    <text id="Shipping_fee" data-name="Shipping fee" transform="translate(14 656)" fill="#2e2e2e" font-size="16" font-family="Roboto-Regular, Roboto"><tspan x="0" y="0">Shipping Fee</tspan></text>
    <g id="Group_3060" data-name="Group 3060" transform="translate(179 305.493)">
      <g id="Group_2150" data-name="Group 2150" transform="translate(28 1)">
        <text id="N" transform="translate(101 319)" fill="#2e2e2e" font-size="14" font-family="Roboto-Medium, Roboto" font-weight="500"><tspan x="-9.939" y="0">N</tspan></text>
        <line id="Line_111" data-name="Line 111" x2="10.5" transform="translate(90.7 312.5)" fill="none" stroke="#2e2e2e" stroke-width="1"/>
        <line id="Line_112" data-name="Line 112" x2="10.5" transform="translate(90.7 315.5)" fill="none" stroke="#2e2e2e" stroke-width="1"/>
      </g>
      <text id="_200_000" data-name="200,000" transform="translate(131 320)" fill="#2e2e2e" font-size="14" font-family="Roboto-Medium, Roboto" font-weight="500"><tspan x="0" y="0">200,000</tspan></text>
    </g>
    <g id="Group_3063" data-name="Group 3063" transform="translate(179 379.493)">
      <g id="Group_2150-2" data-name="Group 2150" transform="translate(28 1)">
        <text id="N-2" data-name="N" transform="translate(101 319)" fill="#2196f3" font-size="14" font-family="Roboto-Medium, Roboto" font-weight="500"><tspan x="-9.939" y="0">N</tspan></text>
        <line id="Line_111-2" data-name="Line 111" x2="10.5" transform="translate(90.7 312.5)" fill="none" stroke="#2196f3" stroke-width="1"/>
        <line id="Line_112-2" data-name="Line 112" x2="10.5" transform="translate(90.7 315.5)" fill="none" stroke="#2196f3" stroke-width="1"/>
      </g>
      <text id="_202_000" data-name="202,000" transform="translate(131 320)" fill="#2196f3" font-size="14" font-family="Roboto-Medium, Roboto" font-weight="500"><tspan x="0" y="0">202,000</tspan></text>
    </g>
    <g id="Group_3062" data-name="Group 3062" transform="translate(195 336.493)">
      <g id="Group_2150-3" data-name="Group 2150" transform="translate(28 1)">
        <text id="N-3" data-name="N" transform="translate(101 319)" fill="#2e2e2e" font-size="14" font-family="Roboto-Medium, Roboto" font-weight="500"><tspan x="-9.939" y="0">N</tspan></text>
        <line id="Line_111-3" data-name="Line 111" x2="10.5" transform="translate(90.7 312.5)" fill="none" stroke="#2e2e2e" stroke-width="1"/>
        <line id="Line_112-3" data-name="Line 112" x2="10.5" transform="translate(90.7 315.5)" fill="none" stroke="#2e2e2e" stroke-width="1"/>
      </g>
      <text id="_2_000" data-name="2,000" transform="translate(131 320)" fill="#2e2e2e" font-size="14" font-family="Roboto-Medium, Roboto" font-weight="500"><tspan x="0" y="0">2,000</tspan></text>
    </g>
    <g id="Group_36" data-name="Group 36" transform="translate(-5 -21)">
      <g id="Group_8" data-name="Group 8" transform="translate(17 413)">
        <text id="Card_Status_:" data-name="Card Status :" transform="translate(0 13)" fill="#2e2e2e" font-size="14" font-family="Roboto-Regular, Roboto"><tspan x="0" y="0">CARD STATUS :</tspan></text>
        <text id="active" transform="translate(100 13)" fill="#2196f3" font-size="14" font-family="Roboto-Medium, Roboto" font-weight="500"><tspan x="0" y="0">ACTIVE</tspan></text>
      </g>
      <g id="Group_35" data-name="Group 35" transform="translate(332 411)">
        <rect id="Rectangle_6" data-name="Rectangle 6" width="36" height="21" rx="10.5" transform="translate(-0.001)" fill="#2196f3"/>
        <circle id="Ellipse_4" data-name="Ellipse 4" cx="9.5" cy="9.5" r="9.5" transform="translate(15.999 1)" fill="#fff"/>
      </g>
    </g>
    <g id="Home_Indicator" data-name="Home Indicator" transform="translate(0 778)">
      <rect id="Frame" width="375" height="34" fill="#fff"/>
      <rect id="Home_Indicator-2" data-name="Home Indicator" width="134" height="5" rx="2.5" transform="translate(121 21)"/>
    </g>
  </g>
</svg>
