<svg xmlns="http://www.w3.org/2000/svg" xmlns:xlink="http://www.w3.org/1999/xlink" width="375" height="812" viewBox="0 0 375 812">
  <defs>
    <filter id="Rectangle_48" x="3" y="159" width="369" height="162" filterUnits="userSpaceOnUse">
      <feOffset dy="3" input="SourceAlpha"/>
      <feGaussianBlur stdDeviation="3" result="blur"/>
      <feFlood flood-color="#2e2e2e" flood-opacity="0.051"/>
      <feComposite operator="in" in2="blur"/>
      <feComposite in="SourceGraphic"/>
    </filter>
    <filter id="Path_39621" x="3" y="362" width="369" height="352.381" filterUnits="userSpaceOnUse">
      <feOffset dy="3" input="SourceAlpha"/>
      <feGaussianBlur stdDeviation="3" result="blur-2"/>
      <feFlood flood-color="#2e2e2e" flood-opacity="0.051"/>
      <feComposite operator="in" in2="blur-2"/>
      <feComposite in="SourceGraphic"/>
    </filter>
    <clipPath id="clip-path">
      <rect width="6" height="50" fill="none"/>
    </clipPath>
    <filter id="Rectangle_2312" x="-9" y="-12" width="393" height="92" filterUnits="userSpaceOnUse">
      <feOffset dy="-3" input="SourceAlpha"/>
      <feGaussianBlur stdDeviation="3" result="blur-3"/>
      <feFlood flood-opacity="0.161"/>
      <feComposite operator="in" in2="blur-3"/>
      <feComposite in="SourceGraphic"/>
    </filter>
    <filter id="Mask" x="1" y="79" width="141" height="52" filterUnits="userSpaceOnUse">
      <feOffset dy="3" input="SourceAlpha"/>
      <feGaussianBlur stdDeviation="4" result="blur-4"/>
      <feFlood flood-opacity="0.078"/>
      <feComposite operator="in" in2="blur-4"/>
      <feComposite in="SourceGraphic"/>
    </filter>
    <clipPath id="clip-checkout-delivery">
      <rect width="375" height="812"/>
    </clipPath>
  </defs>
  <g id="checkout-delivery" clip-path="url(#clip-checkout-delivery)">
    <rect width="375" height="812" fill="#fafafa"/>
    <text id="address_details" data-name="address details" transform="translate(15 149)" fill="#2e2e2e" font-size="16" font-family="Roboto-Regular, Roboto"><tspan x="0" y="0">Address Details</tspan></text>
    <text id="change" transform="translate(363 149)" fill="#2196f3" font-size="13" font-family="Roboto-Regular, Roboto"><tspan x="-44.046" y="0">Change</tspan></text>
    <text id="Select_Delivery_Method" data-name="Select Delivery Method" transform="translate(15 352)" fill="#2e2e2e" font-size="16" font-family="Roboto-Regular, Roboto"><tspan x="0" y="0">Select Delivery Method</tspan></text>
    <g id="Group_247" data-name="Group 247" transform="translate(12 165)">
      <g transform="matrix(1, 0, 0, 1, -12, -165)" filter="url(#Rectangle_48)">
        <rect id="Rectangle_48-2" data-name="Rectangle 48" width="351" height="144" rx="8" transform="translate(12 165)" fill="#fff"/>
      </g>
      <g id="Group_215" data-name="Group 215" transform="translate(11 16.129)">
        <text id="no_5_saviour_close_lekki_phase_2_lagos_nigeria_100001_08122555465" data-name="no 5, saviour close, lekki
phase 2
lagos, nigeria
100001
08122555465" transform="translate(33 15.798)" fill="#2e2e2e" font-size="16" font-family="Roboto-Regular, Roboto"><tspan x="0" y="0">No 5, Saviour Close, Lekki</tspan><tspan x="0" y="23">Phase 2</tspan><tspan x="0" y="46">Lagos, Nigeria</tspan><tspan x="0" y="69">100001</tspan><tspan x="0" y="92">08122555465</tspan></text>
        <path id="edit" d="M12.4,11.157l.987-1.042a.246.246,0,0,1,.422.186v4.734a1.524,1.524,0,0,1-1.48,1.563H1.48A1.524,1.524,0,0,1,0,15.035V3.574A1.524,1.524,0,0,1,1.48,2.011H9.913a.264.264,0,0,1,.176.446L9.1,3.5a.238.238,0,0,1-.176.075H1.48V15.035H12.334v-3.7A.264.264,0,0,1,12.4,11.157Zm4.829-6.571-8.1,8.55-2.787.326a1.311,1.311,0,0,1-1.406-1.485l.308-2.943,8.1-8.55a1.733,1.733,0,0,1,2.55,0L17.23,1.891a1.984,1.984,0,0,1,0,2.7ZM14.187,5.593,12.4,3.7,6.666,9.754,6.441,11.88l2.013-.238Zm2-2.595L14.853,1.591a.31.31,0,0,0-.456,0L13.444,2.6l1.791,1.892.953-1.006A.361.361,0,0,0,16.185,3Z" transform="translate(313.841 0.075)" fill="#fff"/>
        <g id="Ellipse_15" data-name="Ellipse 15" transform="translate(0 2.798)" fill="none" stroke="#2196f3" stroke-width="1.5">
          <circle cx="8.5" cy="8.5" r="8.5" stroke="none"/>
          <circle cx="8.5" cy="8.5" r="7.75" fill="none"/>
        </g>
        <circle id="Ellipse_26" data-name="Ellipse 26" cx="4.5" cy="4.5" r="4.5" transform="translate(4 6.798)" fill="#2196f3"/>
      </g>
    </g>
    <g transform="matrix(1, 0, 0, 1, 0, 0)" filter="url(#Path_39621)">
      <path id="Path_39621-2" data-name="Path 39621" d="M8,0H343c4.418,0,8,4.308,8,9.622V324.758c0,5.314-3.582,9.622-8,9.622H8c-4.418,0-8-4.308-8-9.622V9.622C0,4.308,3.582,0,8,0Z" transform="translate(12 368)" fill="#fff"/>
    </g>
    <text id="door_delivery" data-name="door delivery" transform="translate(56 402)" fill="#2e2e2e" font-size="16" font-family="Roboto-Medium, Roboto" font-weight="500"><tspan x="0" y="0">Door Delivery</tspan></text>
    <text id="Shipping_Fee:" data-name="Shipping Fee:" transform="translate(84 563)" fill="#2e2e2e" font-size="14" font-family="Roboto-Medium, Roboto" font-weight="500"><tspan x="0" y="0">Shipping Fee:</tspan></text>
    <text id="Meet_In_Person" data-name="Meet In Person" transform="translate(56 623)" fill="#2e2e2e" font-size="16" font-family="Roboto-Medium, Roboto" font-weight="500"><tspan x="0" y="0">Meet In Person</tspan></text>
    <text id="Always_make_sure_you_meet_in_open_environment_and_avoid_making_payment_before_delivery." data-name="Always make sure you meet in open environment
and avoid making payment before delivery." transform="translate(56 641)" fill="#2e2e2e" font-size="14" font-family="Roboto-Regular, Roboto" opacity="0.7"><tspan x="0" y="13">Always make sure you meet in open environment</tspan><tspan x="0" y="34">and avoid making payment before delivery.</tspan></text>
    <g id="Ellipse_30" data-name="Ellipse 30" transform="translate(23 609)" fill="none" stroke="#2196f3" stroke-width="1.5">
      <circle cx="8.5" cy="8.5" r="8.5" stroke="none"/>
      <circle cx="8.5" cy="8.5" r="7.75" fill="none"/>
    </g>
    <g id="Group_3064" data-name="Group 3064">
      <g id="Ellipse_31" data-name="Ellipse 31" transform="translate(23 388)" fill="none" stroke="#2196f3" stroke-width="1.5">
        <circle cx="8.5" cy="8.5" r="8.5" stroke="none"/>
        <circle cx="8.5" cy="8.5" r="7.75" fill="none"/>
      </g>
      <circle id="Ellipse_32" data-name="Ellipse 32" cx="4.5" cy="4.5" r="4.5" transform="translate(27 392)" fill="#2196f3"/>
    </g>
    <g id="text" transform="translate(24 227)">
      <text id="Lekki_Phase_1" data-name="Lekki Phase 1" transform="translate(60 231)" fill="#454f63" font-size="16" font-family="Roboto-Regular, Roboto"><tspan x="0" y="0">Lekki Phase 1</tspan></text>
      <text id="Pickup_Location" data-name="Pickup Location" transform="translate(60 208)" fill="#2e2e2e" font-size="12" font-family="Roboto-Regular, Roboto"><tspan x="0" y="0">Pickup Location</tspan></text>
    </g>
    <g id="text-2" data-name="text" transform="translate(24 227)">
      <text id="_5_Saviour_close_Lekki" data-name="5 Saviour close, Lekki" transform="translate(60 299)" fill="#454f63" font-size="16" font-family="Roboto-Regular, Roboto"><tspan x="0" y="0">5 Saviour close, Lekki</tspan></text>
      <text id="Destination_Location" data-name="Destination Location" transform="translate(60 275)" fill="#2e2e2e" font-size="12" font-family="Roboto-Regular, Roboto"><tspan x="0" y="0">Destination Location</tspan></text>
    </g>
    <g id="left" transform="translate(24 227)">
      <g id="line" transform="translate(34.5 211.619)" clip-path="url(#clip-path)">
        <g transform="translate(-128 -133)">
          <rect id="round" width="3" height="3" rx="1.5" transform="translate(128 133)" fill="#ffdc64"/>
        </g>
        <g transform="translate(-128 -124)">
          <rect id="round-2" data-name="round" width="3" height="3" rx="1.5" transform="translate(128 133)" fill="#ffdc64"/>
        </g>
        <g transform="translate(-128 -115)">
          <rect id="round-3" data-name="round" width="3" height="3" rx="1.5" transform="translate(128 133)" fill="#ffdc64"/>
        </g>
        <g transform="translate(-128 -106)">
          <rect id="round-4" data-name="round" width="3" height="3" rx="1.5" transform="translate(128 133)" fill="#ffdc64"/>
        </g>
        <g transform="translate(-128 -97)">
          <rect id="round-5" data-name="round" width="3" height="3" rx="1.5" transform="translate(128 133)" fill="#ffdc64"/>
        </g>
        <g transform="translate(-128 -88)">
          <rect id="round-6" data-name="round" width="3" height="3" rx="1.5" transform="translate(128 133)" fill="#ffdc64"/>
        </g>
      </g>
      <rect id="pin" width="8" height="8" rx="4" transform="translate(32 198)" fill="#06c653"/>
      <rect id="pin-2" data-name="pin" width="8" height="8" rx="4" transform="translate(32 267)" fill="#dc0000"/>
    </g>
    <rect id="divider" width="268" height="1" rx="0.5" transform="translate(84 475)" fill="rgba(244,244,246,0.99)"/>
    <g id="Group_3060" data-name="Group 3060" transform="translate(61 243.493)">
      <g id="Group_2150" data-name="Group 2150" transform="translate(28 1)">
        <text id="N" transform="translate(101 319)" fill="#2196f3" font-size="14" font-family="Roboto-Medium, Roboto" font-weight="500"><tspan x="-9.939" y="0">N</tspan></text>
        <line id="Line_111" data-name="Line 111" x2="10.5" transform="translate(90.7 312.5)" fill="none" stroke="#2196f3" stroke-width="1"/>
        <line id="Line_112" data-name="Line 112" x2="10.5" transform="translate(90.7 315.5)" fill="none" stroke="#2196f3" stroke-width="1"/>
      </g>
      <text id="_2_000" data-name="2,000" transform="translate(131 320)" fill="#2196f3" font-size="14" font-family="Roboto-Medium, Roboto" font-weight="500"><tspan x="0" y="0">2,000</tspan></text>
    </g>
    <line id="Line_208" data-name="Line 208" x2="328" transform="translate(23.5 587.5)" fill="none" stroke="#707070" stroke-width="1" opacity="0.2"/>
    <g id="Group_2066" data-name="Group 2066">
      <g id="Group_1920" data-name="Group 1920">
        <g transform="matrix(1, 0, 0, 1, 0, 0)" filter="url(#Rectangle_2312)">
          <rect id="Rectangle_2312-2" data-name="Rectangle 2312" width="375" height="74" fill="#2196f3"/>
        </g>
      </g>
      <text id="Checkout" transform="translate(186 61)" fill="#fff" font-size="17" font-family="Roboto-Medium, Roboto" font-weight="500"><tspan x="-36.104" y="0">Checkout</tspan></text>
    </g>
    <g id="Status_Bar" data-name="Status Bar" transform="translate(14 10)">
      <g id="Battery" transform="translate(324.333 4.333)">
        <g id="Border" fill="none" stroke="#fff" stroke-miterlimit="10" stroke-width="1">
          <rect width="22" height="11.333" rx="2.667" stroke="none"/>
          <rect x="0.5" y="0.5" width="21" height="10.333" rx="2.167" fill="none"/>
        </g>
        <path id="Cap" d="M0,0V4A2.17,2.17,0,0,0,1.328,2,2.17,2.17,0,0,0,0,0" transform="translate(23 3.667)" fill="#fff"/>
        <rect id="Capacity" width="18" height="7.333" rx="1.333" transform="translate(2 2)" fill="#fff"/>
      </g>
      <path id="Wifi" d="M7.667,11a.314.314,0,0,1-.222-.093L5.439,8.885a.31.31,0,0,1-.094-.231.316.316,0,0,1,.1-.227,3.437,3.437,0,0,1,4.437,0,.315.315,0,0,1,.009.458L7.889,10.907A.314.314,0,0,1,7.667,11ZM11.19,7.451a.313.313,0,0,1-.215-.086,4.928,4.928,0,0,0-6.612,0,.313.313,0,0,1-.215.086.308.308,0,0,1-.22-.091L2.768,6.189a.322.322,0,0,1,0-.46,7.192,7.192,0,0,1,9.791,0,.323.323,0,0,1,.1.23.319.319,0,0,1-.095.23L11.409,7.36A.309.309,0,0,1,11.19,7.451Zm2.669-2.693a.3.3,0,0,1-.215-.088,8.68,8.68,0,0,0-11.955,0,.307.307,0,0,1-.435,0L.094,3.5a.323.323,0,0,1,0-.457,10.948,10.948,0,0,1,15.141,0,.323.323,0,0,1,0,.457l-1.161,1.17A.306.306,0,0,1,13.859,4.758Z" transform="translate(304 4.331)" fill="#fff"/>
      <path id="Cellular_Connection" data-name="Cellular Connection" d="M16,10.667H15a1,1,0,0,1-1-1V1a1,1,0,0,1,1-1h1a1,1,0,0,1,1,1V9.667A1,1,0,0,1,16,10.667Zm-4.667,0h-1a1,1,0,0,1-1-1V3.334a1,1,0,0,1,1-1h1a1,1,0,0,1,1,1V9.667A1,1,0,0,1,11.334,10.667Zm-4.667,0h-1a1,1,0,0,1-1-1v-4a1,1,0,0,1,1-1h1a1,1,0,0,1,1,1v4A1,1,0,0,1,6.666,10.667ZM2,10.667H1a1,1,0,0,1-1-1v-2a1,1,0,0,1,1-1H2a1,1,0,0,1,1,1v2A1,1,0,0,1,2,10.667Z" transform="translate(282 4.667)" fill="#fff"/>
      <g id="Time_Style" data-name="Time Style">
        <rect id="Pill_Shape" data-name="Pill Shape" width="54" height="21" rx="10.5" fill="#34c759"/>
        <text id="Time" transform="translate(0 2)" fill="#fff" font-size="15" font-family="SFProText-Semibold, SF Pro Text" font-weight="600" letter-spacing="-0.02em"><tspan x="11.337" y="14">9:41</tspan></text>
      </g>
    </g>
    <g id="Controls_-_Segmented_Control_-_Light_-_3_Buttons" data-name="Controls - Segmented Control - Light - 3 Buttons" transform="translate(12 86)">
      <rect id="Background" width="351" height="32" rx="6" fill="rgba(118,118,128,0.12)"/>
      <g id="Separator" transform="translate(117 8)">
        <rect id="Separator-2" data-name="Separator" width="1" height="16" fill="#8e8e93" opacity="0.301"/>
      </g>
      <g id="Separator-3" data-name="Separator" transform="translate(236 9)">
        <rect id="Separator-4" data-name="Separator" width="1" height="16" fill="#8e8e93" opacity="0.301"/>
      </g>
      <g transform="matrix(1, 0, 0, 1, -12, -86)" filter="url(#Mask)">
        <g id="Mask-2" data-name="Mask" transform="translate(13 88)" fill="#2196f3" stroke="rgba(0,0,0,0.04)" stroke-width="0.5">
          <rect width="117" height="28" rx="7" stroke="none"/>
          <rect x="0.25" y="0.25" width="116.5" height="27.5" rx="6.75" fill="none"/>
        </g>
      </g>
      <g id="Option_3" data-name="Option 3" transform="translate(233 2)">
        <rect id="Mask-3" data-name="Mask" width="115" height="28" fill="#fff" opacity="0"/>
        <text id="Summary" transform="translate(58 19)" fill="#2e2e2e" font-size="13" font-family="Roboto-Medium, Roboto" font-weight="500"><tspan x="-27.869" y="0">Summary</tspan></text>
      </g>
      <g id="Option_2" data-name="Option 2" transform="translate(118 2)">
        <rect id="Mask-4" data-name="Mask" width="115" height="28" fill="none"/>
        <text id="Payment" transform="translate(61 19)" fill="#2e2e2e" font-size="13" font-family="Roboto-Medium, Roboto" font-weight="500"><tspan x="-25.673" y="0">Payment</tspan></text>
      </g>
      <g id="Option_1" data-name="Option 1" transform="translate(36 8)">
        <text id="Delivery" transform="translate(25 13)" fill="#fff" font-size="14" font-family="Roboto-Medium, Roboto" font-weight="500"><tspan x="-25.009" y="0">Delivery</tspan></text>
      </g>
    </g>
    <g id="Group_1919" data-name="Group 1919" transform="translate(0 -9)">
      <rect id="Rectangle_2306" data-name="Rectangle 2306" width="296" height="40" rx="6" transform="translate(40 747)" fill="#2196f3"/>
      <text id="Proceed_to_Payment" data-name="Proceed to Payment" transform="translate(188 773)" fill="#fff" font-size="17" font-family="Roboto-Regular, Roboto"><tspan x="-76.322" y="0">Proceed to Payment</tspan></text>
    </g>
    <g id="Group_3061" data-name="Group 3061" transform="translate(329.344 -56.657)">
      <line id="Line_84" data-name="Line 84" x2="12.314" y2="12.314" transform="translate(17.5 105.5)" fill="none" stroke="#fff" stroke-linecap="round" stroke-width="2.5"/>
      <line id="Line_85" data-name="Line 85" x1="12.314" y2="12.314" transform="translate(17.5 105.5)" fill="none" stroke="#fff" stroke-linecap="round" stroke-width="2.5"/>
    </g>
    <g id="Home_Indicator" data-name="Home Indicator" transform="translate(0 778)">
      <rect id="Frame" width="375" height="34" fill="#fff"/>
      <rect id="Home_Indicator-2" data-name="Home Indicator" width="134" height="5" rx="2.5" transform="translate(121 21)"/>
    </g>
  </g>
</svg>
