<svg width="101" height="82" viewBox="0 0 101 82" fill="none" xmlns="http://www.w3.org/2000/svg">
<path d="M86.4219 53.0652H96.318C98.4804 53.0652 100.233 51.3123 100.233 49.1498V28.8682H86.4219V53.0652Z" fill="#2196F3"/>
<path d="M96.3173 0H23.599C21.4365 0 19.6836 1.75291 19.6836 3.91537V9.06605H100.233V3.91537C100.233 1.75291 98.4798 0 96.3173 0V0Z" fill="#2196F3"/>
<path d="M76.6337 28.8682H3.91538C1.75291 28.8682 0 30.6211 0 32.7835V78.0179C0 80.1803 1.75291 81.9332 3.91538 81.9332H76.6337C78.7962 81.9332 80.5491 80.1803 80.5491 78.0179V32.7835C80.5491 30.6211 78.7962 28.8682 76.6337 28.8682ZM15.8984 71.5164H11.3644C9.74341 71.5164 8.42785 70.2008 8.42785 68.5799C8.42785 66.9569 9.74341 65.6433 11.3644 65.6433H15.8984C17.5213 65.6433 18.8349 66.9569 18.8349 68.5799C18.8349 70.2008 17.5213 71.5164 15.8984 71.5164ZM23.921 56.0017C22.8856 56.3572 23.1925 56.2758 12.5507 56.2758C9.716 56.2758 7.41181 53.9716 7.41181 51.1388V41.4228C7.41181 38.5881 9.716 36.2839 12.5507 36.2839H22.2667C25.0995 36.2839 27.4037 38.5881 27.4037 41.4228V51.1388C27.4037 53.4017 25.9364 55.3169 23.921 56.0017V56.0017ZM33.6605 71.5164H29.1265C27.5055 71.5164 26.1899 70.2008 26.1899 68.5799C26.1899 66.9569 27.5055 65.6433 29.1265 65.6433H33.6605C35.2834 65.6433 36.597 66.9569 36.597 68.5799C36.597 70.2008 35.2834 71.5164 33.6605 71.5164ZM51.4226 71.5164H46.8886C45.2676 71.5164 43.952 70.2008 43.952 68.5799C43.952 66.9569 45.2676 65.6433 46.8886 65.6433H51.4226C53.0455 65.6433 54.3591 66.9569 54.3591 68.5799C54.3591 70.2008 53.0455 71.5164 51.4226 71.5164ZM69.1847 71.5164H64.6507C63.0278 71.5164 61.7141 70.2008 61.7141 68.5799C61.7141 66.9569 63.0278 65.6433 64.6507 65.6433H69.1847C70.8056 65.6433 72.1212 66.9569 72.1212 68.5799C72.1212 70.2008 70.8056 71.5164 69.1847 71.5164Z" fill="#2196F3"/>
<path d="M13.2852 50.403H21.5309V42.1572C18.361 42.1572 15.9646 42.1572 13.2852 42.1572V50.403Z" fill="#2196F3"/>
<path d="M19.6836 14.9395H100.233V22.9953H19.6836V14.9395Z" fill="#2196F3"/>
</svg>
