<svg width="88" height="88" viewBox="0 0 88 88" fill="none" xmlns="http://www.w3.org/2000/svg">
<g clip-path="url(#clip0)">
<path d="M75.875 54.6217H84.5633C86.4618 54.6217 88.0008 53.0827 88.0008 51.1842V33.3779H75.875V54.6217Z" fill="#2196F3"/>
<path d="M84.5617 8.0332H20.7188C18.8202 8.0332 17.2812 9.57217 17.2812 11.4707V15.9927H87.9992V11.4707C87.9992 9.57217 86.4603 8.0332 84.5617 8.0332Z" fill="#2196F3"/>
<path d="M67.2805 33.3779H3.4375C1.53897 33.3779 0 34.9169 0 36.8154V76.5289C0 78.4274 1.53897 79.9664 3.4375 79.9664H67.2805C69.179 79.9664 70.718 78.4274 70.718 76.5289V36.8154C70.718 34.9169 69.179 33.3779 67.2805 33.3779ZM13.958 70.8209H9.97734C8.55422 70.8209 7.39922 69.6659 7.39922 68.2428C7.39922 66.8179 8.55422 65.6646 9.97734 65.6646H13.958C15.3828 65.6646 16.5361 66.8179 16.5361 68.2428C16.5361 69.6659 15.3828 70.8209 13.958 70.8209ZM21.0014 57.1998C20.0924 57.5119 20.3619 57.4404 11.0189 57.4404C8.53016 57.4404 6.50719 55.4175 6.50719 52.9304V44.4003C6.50719 41.9115 8.53016 39.8886 11.0189 39.8886H19.5491C22.0361 39.8886 24.0591 41.9115 24.0591 44.4003V52.9304C24.0591 54.9171 22.7709 56.5986 21.0014 57.1998ZM29.5522 70.8209H25.5716C24.1484 70.8209 22.9934 69.6659 22.9934 68.2428C22.9934 66.8179 24.1484 65.6646 25.5716 65.6646H29.5522C30.977 65.6646 32.1303 66.8179 32.1303 68.2428C32.1303 69.6659 30.977 70.8209 29.5522 70.8209ZM45.1464 70.8209H41.1658C39.7427 70.8209 38.5877 69.6659 38.5877 68.2428C38.5877 66.8179 39.7427 65.6646 41.1658 65.6646H45.1464C46.5713 65.6646 47.7245 66.8179 47.7245 68.2428C47.7245 69.6659 46.5713 70.8209 45.1464 70.8209ZM60.7406 70.8209H56.76C55.3352 70.8209 54.1819 69.6659 54.1819 68.2428C54.1819 66.8179 55.3352 65.6646 56.76 65.6646H60.7406C62.1637 65.6646 63.3187 66.8179 63.3187 68.2428C63.3187 69.6659 62.1637 70.8209 60.7406 70.8209Z" fill="#2196F3"/>
<path d="M11.6641 52.2843H18.9034V45.0449C16.1204 45.0449 14.0165 45.0449 11.6641 45.0449V52.2843Z" fill="#2196F3"/>
<path d="M17.2812 21.1494H87.9992V28.2221H17.2812V21.1494Z" fill="#2196F3"/>
</g>
<defs>
<clipPath id="clip0">
<rect width="88" height="88" fill="white"/>
</clipPath>
</defs>
</svg>
