<svg width="104" height="104" viewBox="0 0 104 104" fill="none" xmlns="http://www.w3.org/2000/svg">
<path fill-rule="evenodd" clip-rule="evenodd" d="M74.1406 21.7375C83.1575 23.8299 86.6066 29.1024 90.931 36.3594H74.1406V21.7375ZM21.4456 36.9688C23.211 36.9688 24.4924 37.8209 24.4924 39.8125C24.4924 41.4922 23.1332 42.8546 21.4543 42.8594H3.04688C1.36395 42.8594 0 44.2241 0 45.9062C0 47.5892 1.36395 48.9531 3.04688 48.9531H30.4688C32.1675 48.9531 33.5275 50.3163 33.5275 52C33.5275 53.6829 32.1636 55.0469 30.4807 55.0469H3.04688C1.36395 55.0469 0 56.4108 0 58.0938C0 59.7767 1.36395 61.1406 3.04688 61.1406H9.75V70.2812C9.75 71.9642 11.114 73.3281 12.7969 73.3281H18.9216C20.0134 78.7062 24.7654 82.6719 30.3672 82.6719C35.969 82.6719 40.721 78.7062 41.8128 73.3281H72.7497C73.8415 78.7062 78.5935 82.6719 84.1953 82.6719C89.7971 82.6719 94.5491 78.7062 95.6409 73.3281H100.953C102.636 73.3281 104 71.9642 104 70.2812V52C104 43.0601 94.5706 42.4666 94.5618 42.4531H71.0938C69.4108 42.4531 68.0469 41.0892 68.0469 39.4062V21.125H12.7969C11.114 21.125 9.75 22.489 9.75 24.1719V30.875H6.09375C4.41083 30.875 3.04688 32.239 3.04688 33.9219C3.04688 35.6048 4.41083 36.9688 6.09375 36.9688H21.4456ZM88.1451 67.0424C90.3264 69.2236 90.3264 72.7616 88.1451 74.9428C84.6365 78.4515 78.6094 75.9553 78.6094 70.9922C78.6094 66.0299 84.6365 63.5337 88.1451 67.0424V67.0424ZM34.317 67.0424C36.4982 69.2236 36.4982 72.7616 34.317 74.9428C30.8083 78.4515 24.7812 75.9553 24.7812 70.9922C24.7812 66.0299 30.8083 63.5337 34.317 67.0424V67.0424Z" fill="#2196F3"/>
</svg>
