<svg width="62" height="82" viewBox="0 0 62 82" fill="none" xmlns="http://www.w3.org/2000/svg">
<path d="M47.6931 40.6971C47.6931 31.494 40.204 24.0049 31.0008 24.0049C21.7977 24.0049 14.3086 31.494 14.3086 40.6971C14.3086 49.9003 21.7977 57.3894 31.0008 57.3894C40.204 57.3894 47.6931 49.9003 47.6931 40.6971ZM39.8406 37.6138L30.3022 47.1523C29.8364 47.6181 29.2262 47.851 28.6162 47.851C28.0063 47.851 27.396 47.6181 26.9303 47.1523L22.1611 42.3831C21.2297 41.4516 21.2297 39.9425 22.1611 39.0111C23.0925 38.0796 24.6017 38.0796 25.5331 39.0111L28.6162 42.0944L36.4688 34.2418C37.4002 33.3104 38.9093 33.3104 39.8407 34.2418C40.7722 35.1733 40.7722 36.6824 39.8406 37.6138Z" fill="#2196F3"/>
<path d="M0 12.082V39.1487C0 57.6334 11.4396 74.9137 28.6153 81.3946V61.9178C17.914 60.7139 9.53843 51.7153 9.53843 40.6973C9.53843 29.6793 17.914 20.6807 28.6153 19.4768V0L1.63012 9.82077C0.656721 10.1444 0 11.055 0 12.082Z" fill="#2196F3"/>
<path d="M61.9981 39.1487V12.082C61.9981 11.055 61.3414 10.1444 60.368 9.82077L33.3828 0V19.4768C44.0841 20.6807 52.4597 29.6793 52.4597 40.6973C52.4597 51.7153 44.0841 60.7139 33.3828 61.9178V81.3946C50.5585 74.9137 61.9981 57.6334 61.9981 39.1487Z" fill="#2196F3"/>
</svg>
